<svg width="14" height="15" viewBox="0 0 14 15" fill="none" xmlns="http://www.w3.org/2000/svg">
<path d="M7.45349 1.01789L9.34276 4.8369L13.5672 5.45037C13.7576 5.47776 13.9158 5.6107 13.9753 5.79321C14.0347 5.97572 13.9851 6.1761 13.8473 6.30995L10.7898 9.28029L11.5115 13.4788C11.544 13.668 11.466 13.8591 11.3104 13.9719C11.1548 14.0848 10.9485 14.0997 10.7782 14.0104L7.0003 12.0312L3.22175 14.0122C3.05134 14.1011 2.84519 14.0859 2.68971 13.973C2.53422 13.8602 2.45626 13.6691 2.48852 13.48L3.21021 9.28393L0.152738 6.31359C0.0149159 6.17973 -0.0347135 5.97936 0.0247487 5.79685C0.0842108 5.61434 0.242433 5.4814 0.432788 5.45401L4.65724 4.83751L6.54651 1.0185C6.63176 0.846405 6.80743 0.737433 6.99981 0.737305C7.19219 0.737176 7.36801 0.845913 7.45349 1.01789Z" fill="#FFF8E7"/>
</svg>
