<svg width="14" height="14" viewBox="0 0 14 14" fill="none" xmlns="http://www.w3.org/2000/svg">
<path d="M9.89194 11.2527L11.0524 10.0922L13.1488 12.1886L11.9883 13.349L9.89194 11.2527ZM12.5686 1.76171C13.1649 2.35749 13.5 3.16587 13.5 4.00883C13.5 4.85178 13.1649 5.66017 12.5686 6.25595L7.67063 11.1531C7.3502 11.4734 6.83078 11.4734 6.51035 11.1531L5.42392 10.0667L2.14165 13.3489L0.98137 12.1886L5.90477 7.26525L5.13344 6.49473L4.48355 7.14544C4.40658 7.22261 4.30206 7.26598 4.19307 7.26598C4.08407 7.26598 3.97956 7.22261 3.90259 7.14544L0.620321 3.86318C0.459893 3.70275 0.459893 3.44264 0.620321 3.28222C0.780749 3.12179 1.04085 3.12179 1.20128 3.28222L3.78278 5.86454L4.43349 5.21383L1.85117 2.63233C1.69074 2.4719 1.69074 2.21179 1.85117 2.05137C2.0116 1.89094 2.2717 1.89094 2.43213 2.05137L5.01363 4.63369L5.66434 3.98298L3.08202 1.40148C2.92159 1.24105 2.92159 0.980944 3.08202 0.820516C3.24245 0.660088 3.50255 0.660088 3.66298 0.820516L6.94525 4.10278C7.02242 4.17976 7.06578 4.28427 7.06578 4.39326C7.06578 4.50226 7.02242 4.60677 6.94525 4.68374L6.29454 5.33363L7.06505 6.10497L11.4083 1.76171C11.7287 1.44137 12.2482 1.44137 12.5686 1.76171Z" fill="white"/>
</svg>
